<svg width="154" height="66" viewBox="0 0 154 66" fill="none" xmlns="http://www.w3.org/2000/svg">
  <path
    d="M68.0382 39.1795C66.1619 39.1815 65.2011 38.3239 65.199 36.4168C65.1968 34.4226 66.054 33.5191 68.0031 33.5169C68.9629 33.5159 69.8213 33.6895 70.6655 34.0381L70.6632 31.9856C69.8336 31.6954 68.9755 31.507 67.8262 31.5083C64.4807 31.5121 62.81 33.2898 62.8135 36.4195C62.8168 39.4037 64.5785 41.1775 67.8514 41.174C69.0007 41.1727 69.8732 41.0119 70.6875 40.7342L70.6851 38.6671C69.8416 39.0175 68.9547 39.1785 68.0382 39.1795Z"
    fill="white" />
  <path
    d="M74.6726 39.3325C73.6108 39.3337 73.1741 38.8392 73.1726 37.5728C73.1713 36.321 73.6068 35.8109 74.6687 35.8097C75.745 35.8085 76.1822 36.3177 76.1835 37.5694C76.1849 38.8359 75.7489 39.3313 74.6726 39.3325ZM78.5692 37.5667C78.5666 35.2668 77.3287 33.9725 74.6668 33.9756C72.0193 33.9786 70.7846 35.2754 70.7872 37.5754C70.7898 39.9045 72.0128 41.1696 74.6747 41.1666C77.351 41.1636 78.5718 39.8958 78.5692 37.5667Z"
    fill="white" />
  <path
    d="M84.5189 36.7742L84.5236 41.0102L86.8653 41.0076L86.8605 36.5822C86.8585 34.8064 86.072 33.9629 84.2977 33.9648C83.323 33.9659 82.4213 34.3164 81.8692 34.7101L81.7959 34.1133L79.6139 34.1158L79.6215 41.0156L81.9633 41.013L81.9581 36.3112C82.3071 35.9614 82.874 35.6987 83.3832 35.6982C84.2269 35.6972 84.518 36.0025 84.5189 36.7742Z"
    fill="white" />
  <path
    d="M90.3126 39.4027C89.6141 39.4034 88.6252 39.2443 87.941 38.954L87.9429 40.7444C88.5251 40.9768 89.5872 41.1501 90.6928 41.149C92.8017 41.1466 93.9066 40.3886 93.905 39.0055C93.9036 37.8265 93.4232 37.303 91.8081 36.8099C90.7748 36.4908 90.2222 36.4332 90.2218 36.0693C90.2213 35.7345 90.774 35.69 91.5012 35.6893C92.0683 35.6887 92.8251 35.8043 93.378 36.0511L93.376 34.2897C92.8377 34.1157 91.9066 33.9565 91.0339 33.9575C88.8081 33.96 87.8347 34.7181 87.8362 36.072C87.8374 37.2365 88.4927 37.7307 89.7586 38.166C90.8354 38.5287 91.5045 38.6299 91.5049 39.023C91.5054 39.3722 91.1415 39.4017 90.3126 39.4027Z"
    fill="white" />
  <path
    d="M94.3677 35.8749L95.2986 35.8738L95.3017 38.6833C95.3034 40.2118 96.0755 41.1425 97.7919 41.1406C98.49 41.1398 99.0136 41.052 99.4934 40.8477L99.4915 39.2609C99.1864 39.3632 98.9245 39.4072 98.6338 39.4075C97.9643 39.4081 97.6444 39.1903 97.6436 38.5206L97.6407 35.8713L99.2114 35.8695L99.3115 34.0936L97.6388 34.0954L97.6365 32.0283L95.295 32.6567L95.2966 34.0981L94.3656 34.099L94.3677 35.8749Z"
    fill="white" />
  <path
    d="M104.999 33.9419C104.098 34.0303 103.138 34.3662 102.542 34.7308L102.469 34.0904L100.243 34.0929L100.251 40.9928L102.592 40.9902L102.587 36.3464C103.154 36.0548 104.23 35.7916 105.001 35.7034L104.999 33.9419Z"
    fill="white" />
  <path
    d="M107.918 41.1296C108.965 41.1284 109.75 40.8219 110.317 40.3993L110.39 40.9814L112.572 40.979L112.565 34.0791L110.223 34.0817L110.228 38.7979C109.894 39.1478 109.356 39.4104 108.803 39.4111C108.047 39.4119 107.668 39.0775 107.667 38.2914L107.662 34.0845L105.321 34.0871L105.326 38.425C105.328 40.2009 106.289 41.1315 107.918 41.1296Z"
    fill="white" />
  <path
    d="M114.713 41.8061C114.422 41.8065 114.145 41.7776 113.826 41.6616L113.828 43.292C114.308 43.4806 114.759 43.5384 115.457 43.5375C117.246 43.5356 118.204 42.2973 118.988 40.4039L121.614 34.0688L119.17 34.0716L117.386 38.455L115.563 34.0755L113.104 34.0783L116.21 40.8436C115.804 41.572 115.499 41.8052 114.713 41.8061Z"
    fill="white" />
  <path
    d="M125.107 35.5061C126.082 35.5051 126.446 35.9414 126.447 36.611L126.447 36.9166L123.596 36.9198C123.595 35.959 123.987 35.5074 125.107 35.5061ZM128.095 40.656L128.093 39.1276C127.57 39.3463 126.712 39.493 125.956 39.4939C124.588 39.4953 123.817 39.1906 123.598 38.2736L128.485 38.2682L128.484 37.0309C128.482 35.1385 127.215 33.9171 125.033 33.9194C122.633 33.9222 121.427 35.3209 121.43 37.5191C121.432 39.921 123.019 41.1128 125.419 41.1102C126.51 41.1089 127.426 40.9624 128.095 40.656Z"
    fill="white" />
  <path
    d="M136.776 36.5267C136.774 34.7508 135.988 33.9072 134.213 33.9092C133.239 33.9103 132.337 34.2607 131.785 34.6544L131.711 34.0577L129.529 34.0601L129.537 40.9599L131.879 40.9573L131.874 36.2556C132.223 35.9057 132.79 35.643 133.299 35.6425C134.142 35.6415 134.434 35.9468 134.434 36.7184L134.439 40.9545L136.781 40.9519L136.776 36.5267Z"
    fill="white" />
  <path
    d="M141.61 39.3891C140.635 39.3902 140.14 39.0851 140.139 37.7604C140.138 36.4065 140.66 35.62 141.649 35.6189C142.144 35.6184 142.58 35.7634 142.915 36.0687L142.918 38.8636C142.555 39.2134 142.134 39.3886 141.61 39.3891ZM142.91 31.134L142.913 34.3656C142.404 34.0605 141.851 33.9009 141.138 33.9016C139.16 33.904 137.751 35.2594 137.753 37.7486C137.756 40.2231 138.921 41.0952 140.943 41.093C141.874 41.092 142.542 40.8438 143.109 40.3629L143.241 40.9449L145.263 40.9427L145.252 31.1313L142.91 31.134Z"
    fill="white" />
  <path
    d="M149.974 39.2485C148.913 39.2497 148.476 38.7552 148.474 37.4888C148.473 36.237 148.909 35.7269 149.971 35.7257C151.047 35.7245 151.484 36.2338 151.485 37.4854C151.487 38.7519 151.051 39.2473 149.974 39.2485ZM149.969 33.8916C147.321 33.8946 146.086 35.1915 146.089 37.4915C146.091 39.8205 147.315 41.0857 149.976 41.0827C152.653 41.0796 153.873 39.8119 153.871 37.4828C153.868 35.1828 152.63 33.8887 149.969 33.8916Z"
    fill="white" />
  <path
    d="M67.5022 52.8988C66.062 52.9004 65.4361 52.348 65.4346 51.0377C65.4331 49.6403 66.1599 49.1737 67.5126 49.1722C68.2255 49.1713 68.9091 49.3163 69.4187 49.5632L69.4168 47.9036C68.718 47.5696 68.0199 47.4394 67.0163 47.4404C64.6158 47.4431 63.0464 48.6094 63.0491 51.0404C63.0517 53.4278 64.5077 54.6343 66.9805 54.6315C67.9403 54.6305 68.7402 54.4986 69.4382 54.1922L69.4363 52.4599C68.8546 52.7518 68.1857 52.898 67.5022 52.8988Z"
    fill="white" />
  <path
    d="M73.5688 52.79C72.507 52.7912 72.0702 52.2966 72.0688 51.0303C72.0675 49.7785 72.503 49.2684 73.5649 49.2672C74.6411 49.266 75.0784 49.7752 75.0796 51.0269C75.0811 52.2934 74.6451 52.7888 73.5688 52.79ZM73.5629 47.4331C70.9155 47.4361 69.6807 48.7329 69.6834 51.0329C69.686 53.362 70.9089 54.6271 73.5708 54.6241C76.2471 54.6211 77.468 53.3533 77.4654 51.0242C77.4628 48.7243 76.2248 47.4301 73.5629 47.4331Z"
    fill="white" />
  <path
    d="M83.1935 47.4224C82.2188 47.4234 81.3172 47.7739 80.765 48.1677L80.6916 47.5709L78.5098 47.5732L78.5173 54.4731L80.8591 54.4705L80.8539 49.7688C81.203 49.4188 81.7698 49.1562 82.2789 49.1557C83.1224 49.1547 83.4139 49.4601 83.4147 50.2317L83.4194 54.4677L85.7613 54.465L85.7563 50.0397C85.7543 48.264 84.9679 47.4204 83.1935 47.4224Z"
    fill="white" />
  <path
    d="M98.902 45.076L96.5095 51.7748L94.1168 45.0813L91.673 45.084L95.2619 54.4548L97.7927 54.452L101.36 45.0732L98.902 45.076Z"
    fill="white" />
  <path
    d="M103.786 53.1494C103.045 53.1503 102.709 52.8449 102.709 52.3356C102.708 51.7676 103.043 51.5054 103.741 51.5046L105.399 51.5028L105.4 52.4781C105.066 52.8716 104.528 53.1487 103.786 53.1494ZM104.216 47.3989C103.125 47.4002 102.092 47.6051 101.424 47.8679L101.425 49.3819C102.152 49.1482 102.982 49.0162 103.738 49.0154C105.018 49.014 105.396 49.2901 105.397 49.9888L105.397 50.149L103.477 50.151C101.557 50.1532 100.598 51.0132 100.6 52.4251C100.601 53.8953 101.722 54.5928 103.046 54.5913C104.209 54.5901 104.965 54.3273 105.474 53.861L105.591 54.443L107.642 54.4407L107.638 50.132C107.635 48.2249 106.34 47.3966 104.216 47.3989Z"
    fill="white" />
  <path
    d="M111.802 52.8495C111.424 52.8499 111.249 52.719 111.248 52.2679L111.24 44.6255L108.898 44.6281L108.907 52.5035C108.908 53.9592 109.52 54.5843 111.033 54.5826C111.673 54.5818 112.051 54.5087 112.501 54.3335L112.5 52.7467C112.282 52.8197 112.049 52.8491 111.802 52.8495Z"
    fill="white" />
  <path
    d="M116.181 52.7426C115.119 52.7438 114.682 52.2493 114.681 50.983C114.679 49.7311 115.115 49.221 116.177 49.2199C117.253 49.2187 117.69 49.7278 117.692 50.9795C117.693 52.246 117.257 52.7415 116.181 52.7426ZM116.175 47.3857C113.527 47.3887 112.293 48.6855 112.295 50.9856C112.298 53.3147 113.521 54.5797 116.183 54.5767C118.859 54.5738 120.08 53.3059 120.077 50.9768C120.075 48.677 118.837 47.3827 116.175 47.3857Z"
    fill="white" />
  <path
    d="M125.878 47.375C124.976 47.4634 124.017 47.7993 123.421 48.1639L123.347 47.5235L121.122 47.526L121.129 54.4259L123.471 54.4233L123.466 49.7796C124.033 49.4879 125.109 49.2247 125.88 49.1365L125.878 47.375Z"
    fill="white" />
  <path
    d="M48.3309 55.8873C49.2135 55.8864 49.5903 55.4166 49.5891 54.3214C49.5877 53.1527 49.2099 52.7207 48.3275 52.7217C47.4444 52.7226 47.0681 53.1554 47.0695 54.3244C47.0706 55.4195 47.4479 55.8882 48.3309 55.8872"
    fill="white" />
  <path d="M35.7335 53.0391L35.0732 54.779L36.3971 54.7776L35.7335 53.0391Z" fill="white" />
  <path
    d="M28.1889 14.7269L33.3678 4.2452C31.9607 3.43016 30.222 3.1967 28.5547 3.76046C25.4938 4.79555 23.8441 8.12294 24.8794 11.1891C25.4418 12.8547 26.6833 14.1006 28.1889 14.7269Z"
    fill="white" />
  <path
    d="M29.5032 18.6786C31.4525 14.5123 34.1226 8.80574 40.1183 5.95355C41.5904 5.25362 43.1911 4.7614 44.8775 4.49104L44.9779 4.47494L45.8813 2.63336C46.0995 2.18876 45.9228 1.643 45.4788 1.42403C41.2966 -0.638775 36.237 1.08688 34.1832 5.27386L22.8318 28.4142C22.5152 29.0594 22.3511 29.7687 22.3519 30.4875L22.3547 32.9864L22.3595 37.4241C22.3601 37.8517 22.7069 38.198 23.1342 38.1975L25.1421 38.1952V38.1934C25.2347 31.2331 26.7023 24.668 29.5032 18.6786Z"
    fill="white" />
  <path
    d="M57.5967 29.5883C57.5962 29.1606 57.2494 28.8144 56.8221 28.8148L53.1668 28.819L53.1572 20.141C53.1567 19.7133 52.8099 19.367 52.3826 19.3675L43.8446 19.377C43.4172 19.3774 43.0713 19.7246 43.0716 20.1521L43.0813 28.8301L33.0253 28.8413L44.498 5.45361C43.0634 5.72712 41.713 6.15453 40.4905 6.73602C34.7758 9.45501 32.2872 14.7733 30.2883 19.0468C27.5406 24.9182 26.1014 31.3602 26.0085 38.1945L43.0917 38.1755L43.0986 44.397C43.0991 44.8246 43.4459 45.1709 43.8732 45.1703L52.4111 45.1609C52.8385 45.1604 53.1846 44.8134 53.1841 44.3857L53.1771 38.1643L56.8325 38.1603C57.2598 38.1598 57.6058 37.8128 57.6053 37.3851L57.5967 29.5883Z"
    fill="white" />
  <path
    d="M20.5257 25.7188C20.4756 25.7342 20.4227 25.7449 20.373 25.7608C20.4235 25.7458 20.4749 25.7332 20.5257 25.7188Z"
    fill="white" />
  <path
    d="M53.8761 57.3536C53.0758 57.3545 52.3313 57.2265 51.8344 56.9876L51.8328 55.5615C52.3845 55.8184 53.1115 55.9925 53.7 55.9919C54.3067 55.9911 54.6286 55.9263 54.6282 55.5583C54.6279 55.1811 54.2413 55.0986 53.3492 54.8234C52.1535 54.4383 51.7484 53.9969 51.7472 53.0306C51.7459 51.862 52.5821 51.2444 54.2096 51.2426C54.8626 51.2418 55.6259 51.3698 56.0583 51.5073L56.0599 52.9429C55.4803 52.7136 54.947 52.6223 54.4869 52.6227C53.9445 52.6234 53.5125 52.6607 53.5128 53.0194C53.5132 53.3325 53.789 53.4056 54.6261 53.6258C56.0793 54.0198 56.3928 54.6361 56.3938 55.5564C56.3951 56.6329 55.5681 57.3517 53.8761 57.3536ZM48.3325 57.3597C46.3735 57.3619 45.3061 56.4613 45.3037 54.3262C45.3013 52.1177 46.3666 51.2513 48.3257 51.2491C50.2752 51.247 51.3522 52.111 51.3546 54.3195C51.357 56.4546 50.282 57.3576 48.3325 57.3597ZM43.3548 57.2733L41.1257 54.1469L41.1292 57.2757L39.4007 57.2776L39.3941 51.351L40.8651 51.3494L43.1034 54.4852L43.0999 51.347L44.829 51.345L44.8356 57.2717L43.3548 57.2733ZM37.1266 57.2802L36.6285 56.02L34.8446 56.0219L34.3585 57.2833L32.5564 57.2853L34.8212 51.3561L36.6513 51.3542L38.9292 57.2782L37.1266 57.2802ZM41.397 49.6988C42.013 49.6981 42.4826 50.084 43.062 50.0834C43.4479 50.083 43.7422 49.9264 43.8888 49.7143L43.89 50.8097C43.7708 50.9753 43.4491 51.1138 43.0906 51.1142C42.4837 51.1149 41.9314 50.729 41.4256 50.7297C41.0391 50.73 40.7452 50.8684 40.5246 51.0894L40.5235 50.0034C40.6979 49.8375 41.038 49.6993 41.397 49.6988ZM57.7865 49.7115C57.786 49.3565 57.4982 49.0692 57.1436 49.0695L34.4932 49.0947L32.3319 49.0971L30.8379 49.0988L30.8282 40.4208C30.8278 39.9931 30.4809 39.6469 30.0537 39.6473L21.5157 39.6568C21.0883 39.6573 20.7423 40.0044 20.7427 40.432L20.7523 49.1099L10.6964 49.1212L22.3896 25.2837C22.1615 25.3232 21.9377 25.3754 21.7125 25.4234C21.314 25.5172 20.9085 25.6 20.5256 25.7187C20.475 25.7332 20.4235 25.7457 20.373 25.7607C19.6812 25.9822 19.0158 26.2423 18.384 26.5426C12.5474 29.3197 10.0059 34.7509 7.96408 39.1152C5.1841 45.0579 3.72009 51.5713 3.60156 58.4744L20.7628 58.4553L20.7696 64.6768C20.7701 65.1045 21.1169 65.4507 21.5443 65.4502L30.0822 65.4408C30.5096 65.4402 30.8556 65.0932 30.8551 64.6656L30.8482 58.4442L32.3423 58.4426L34.5035 58.4401L57.0125 58.4151C57.4453 58.4146 57.7957 58.0631 57.7952 57.6301L57.7865 49.7115Z"
    fill="white" />
  <path
    d="M18.0061 25.7495C19.5075 25.0344 21.1421 24.5326 22.8647 24.2565L22.8961 24.2516L23.5525 22.9135C23.7706 22.4688 23.5938 21.9231 23.1499 21.7041C22.1029 21.1877 21.0009 20.9089 19.9048 20.8465C16.6228 20.6599 13.3939 22.4151 11.8542 25.5539L0.502891 48.6943C0.18642 49.3394 0.0222038 50.0488 0.0230132 50.7676L0.025801 53.2665L0.0306574 57.7041C0.031197 58.1313 0.377166 58.477 0.803894 58.4773C0.804343 58.4773 0.804793 58.4776 0.805333 58.4776L2.7226 58.4754C2.84077 51.44 4.3331 44.8011 7.16776 38.7421C9.16102 34.485 11.8864 28.6599 18.0061 25.7495Z"
    fill="white" />
</svg>
