<svg width="183" height="61" viewBox="0 0 183 61" fill="none" xmlns="http://www.w3.org/2000/svg">
<g clip-path="url(#clip0_2034_96)">
<mask id="mask0_2034_96" style="mask-type:luminance" maskUnits="userSpaceOnUse" x="0" y="0" width="183" height="61">
<path d="M182.264 0H0V61H182.264V0Z" fill="white"/>
</mask>
<g mask="url(#mask0_2034_96)">
<path d="M35.1528 55.5385L35.1249 53.688H34.8735V60.4924H35.1249V57.1329C35.1249 54.8837 36.3815 53.745 37.8896 53.745C38.0571 53.745 38.2526 53.745 38.448 53.7734V53.5172C38.3084 53.5172 38.1408 53.4886 37.8896 53.4886C36.6887 53.4603 35.5437 54.1435 35.1528 55.5385Z" fill="white"/>
<path d="M35.4033 60.7781H34.5934V53.4043H35.4033V54.3724C35.9617 53.6036 36.8553 53.1766 37.9165 53.1766C38.112 53.1766 38.2795 53.205 38.4192 53.205L38.7543 53.2335V54.0877L38.4471 54.0306C38.2516 54.0023 38.0283 54.0023 37.9165 54.0023C36.4086 54.0023 35.4312 55.2264 35.4312 57.1055V60.7781H35.4033Z" fill="white"/>
<path d="M47.9699 53.4584C45.7079 53.4584 44.2838 54.9957 44.2838 57.074C44.2838 59.1524 45.68 60.6898 47.9699 60.6898C50.4831 60.6898 51.2093 59.067 51.4326 58.0989H51.1533C50.93 58.9531 50.2877 60.4051 47.9699 60.4051C45.7358 60.4051 44.535 58.8392 44.535 57.0456H51.5165C51.5444 54.7964 49.9247 53.4584 47.9699 53.4584ZM47.9699 53.7431C50.0084 53.7431 51.1533 55.2236 51.2651 56.8463H44.535C44.6747 55.1382 45.8196 53.7431 47.9699 53.7431Z" fill="white"/>
<path d="M47.9687 61.0017C45.6228 61.0017 44.0031 59.4075 44.0031 57.1014C44.0031 54.7953 45.6228 53.201 47.9687 53.201C50.2307 53.201 51.8223 54.7953 51.8223 57.1014V57.3861H44.841C44.9526 58.8095 45.93 60.1761 47.9687 60.1761C49.5603 60.1761 50.5098 59.4929 50.9009 58.0693L50.9567 57.8701H51.7944L51.7107 58.2117C51.4872 59.2367 50.6774 61.0017 47.9687 61.0017ZM44.8689 56.532H50.9567C50.7612 55.2224 49.7838 53.9982 47.9687 53.9982C45.9579 54.0267 45.0644 55.2793 44.8689 56.532Z" fill="white"/>
<path d="M61.6779 56.9597L59.6673 56.7035C58.5781 56.5611 58.0755 56.1341 58.0755 55.2799C58.0755 54.3689 58.7178 53.714 60.6447 53.714C62.3481 53.714 63.2137 54.1127 63.2697 55.65H63.521C63.4652 53.9419 62.5157 53.4293 60.7005 53.4293C58.5782 53.4293 57.7962 54.1127 57.7962 55.2515C57.7962 56.3334 58.4945 56.8173 59.5835 56.9312L61.5942 57.1874C62.9904 57.3583 63.521 57.6714 63.521 58.7249C63.521 59.8921 62.5157 60.4045 60.7844 60.4045C58.3827 60.4045 57.9359 59.6074 57.7962 58.3263H57.545C57.6846 59.5789 58.0197 60.6609 60.7844 60.6609C63.3534 60.6609 63.7724 59.5789 63.7724 58.7249C63.8282 57.6429 63.2976 57.1874 61.6779 56.9597Z" fill="white"/>
<path d="M60.8391 61.0015C57.8511 61.0015 57.4602 59.7204 57.3205 58.4108L57.2926 58.0976H58.1025L58.1304 58.3538C58.242 59.4073 58.4934 60.1759 60.8391 60.1759C63.2965 60.1759 63.2966 59.1226 63.2966 58.781C63.2966 58.0407 63.0732 57.699 61.5931 57.5282L59.5825 57.272C58.242 57.1012 57.5439 56.4463 57.5439 55.3075C57.5439 53.9126 58.6052 53.2007 60.7275 53.2007C62.2076 53.2007 63.7155 53.4854 63.8272 55.6776V55.9623H63.0174V55.6776C62.9615 54.425 62.403 53.998 60.6716 53.998C58.6052 53.998 58.3817 54.7382 58.3817 55.2791C58.3817 55.8485 58.6052 56.2755 59.7222 56.4178L61.7328 56.6742C63.1569 56.845 64.1343 57.272 64.1343 58.781C64.1064 59.8058 63.5479 61.0015 60.8391 61.0015Z" fill="white"/>
<path d="M70.6678 53.6862H70.4164V60.4906H70.6678V53.6862Z" fill="white"/>
<path d="M70.9458 53.4001H70.136V60.7738H70.9458V53.4001Z" fill="white"/>
<path d="M70.6684 51.0101H70.4164V52.4653H70.6684V51.0101Z" fill="white"/>
<path d="M70.9472 50.7242H70.136V52.7488H70.9472V50.7242Z" fill="white"/>
<path d="M84.1257 55.5364C83.5673 53.9992 82.2549 53.4584 80.9147 53.4584C78.4854 53.4584 77.4243 55.1663 77.4243 57.0736C77.4243 58.9809 78.4854 60.6889 80.9147 60.6889C82.4504 60.6889 83.5952 59.9772 84.0978 58.6393H84.1257V60.4896H84.377V50.9818H84.1257V55.5364ZM80.9426 60.4611C78.653 60.4611 77.7036 58.8385 77.7036 57.1021C77.7036 55.3656 78.653 53.743 80.9426 53.743C83.2043 53.743 84.1536 55.3656 84.1536 57.1021C84.1257 58.8385 83.2043 60.4611 80.9426 60.4611Z" fill="white"/>
<path d="M80.9415 61.0008C78.6519 61.0008 77.172 59.4636 77.172 57.1007C77.172 54.738 78.6519 53.2008 80.9415 53.2008C82.2259 53.2008 83.2311 53.6564 83.8732 54.4818V50.7242H84.6831V60.8014H83.8732V59.7198C83.2032 60.5452 82.17 61.0008 80.9415 61.0008ZM80.9415 54.0265C78.205 54.0265 77.9817 56.3892 77.9817 57.1007C77.9817 57.8124 78.205 60.1751 80.9415 60.1751C83.6499 60.1751 83.8732 57.8124 83.8732 57.1007C83.8453 56.3606 83.6499 54.0265 80.9415 54.0265Z" fill="white"/>
<path d="M94.8474 53.4583C92.5854 53.4583 91.1613 54.9956 91.1613 57.0739C91.1613 59.1523 92.5575 60.6897 94.8474 60.6897C97.3608 60.6897 98.1147 59.0667 98.3102 58.0988H98.0589C97.8356 58.953 97.1933 60.4049 94.8474 60.4049C92.6135 60.4049 91.4405 58.8391 91.4405 57.0455H98.4498C98.4219 54.7963 96.7743 53.4583 94.8474 53.4583ZM94.8474 53.743C96.8861 53.743 98.0589 55.2233 98.1426 56.8462H91.4126C91.5243 55.1379 92.6972 53.743 94.8474 53.743Z" fill="white"/>
<path d="M94.8462 61.0015C92.5284 61.0015 90.8808 59.4073 90.8808 57.1012C90.8808 54.7951 92.5005 53.2007 94.8462 53.2007C97.1082 53.2007 98.6998 54.7951 98.6998 57.1012V57.3859H91.7185C91.8301 58.8093 92.8075 60.1759 94.8462 60.1759C96.438 60.1759 97.3873 59.4927 97.7784 58.0691L97.8342 57.8698H98.672L98.5882 58.2115C98.3928 59.0372 97.6666 61.0015 94.8462 61.0015ZM91.7185 56.5317H97.8342C97.6387 55.2221 96.6613 53.998 94.8462 53.998C92.8356 54.0263 91.914 55.2791 91.7185 56.5317Z" fill="white"/>
<path d="M108.333 53.4583C106.881 53.4583 105.848 53.9992 105.317 55.1949H105.289V53.6574H105.038V60.4618H105.289V56.6469C105.289 55.7642 105.54 53.7145 108.333 53.7145C110.734 53.7145 111.07 55.0525 111.07 56.1914V60.4618H111.321V56.1914C111.321 54.9102 110.902 53.4583 108.333 53.4583Z" fill="white"/>
<path d="M111.599 60.7738H110.789V56.2185C110.789 55.1367 110.51 54.0263 108.332 54.0263C106.042 54.0263 105.567 55.4784 105.567 56.6742V60.7738H104.757V53.4H105.567V54.2827C106.181 53.5708 107.103 53.2007 108.332 53.2007C110.51 53.2007 111.599 54.2256 111.599 56.2185V60.7738Z" fill="white"/>
<path d="M122.069 60.4618C119.835 60.4618 118.663 58.8959 118.663 57.1023C118.663 55.3088 119.835 53.7429 122.069 53.7429C124.164 53.7429 125.03 54.654 125.281 55.8212H125.532C125.281 54.3692 124.024 53.4866 122.042 53.4866C119.78 53.4866 118.355 55.0241 118.355 57.1023C118.355 59.1806 119.78 60.7181 122.042 60.7181C124.08 60.7181 125.197 59.6932 125.588 58.1842H125.309C124.974 59.6647 123.801 60.4618 122.069 60.4618Z" fill="white"/>
<path d="M122.068 61.0015C119.751 61.0015 118.103 59.4073 118.103 57.1012C118.103 54.7951 119.723 53.2007 122.068 53.2007C124.135 53.2007 125.531 54.1688 125.811 55.7915L125.866 56.1331H125.084L125.029 55.9054C124.749 54.6528 123.772 54.0548 122.068 54.0548C119.89 54.0548 118.941 55.5922 118.941 57.1297C118.941 58.667 119.918 60.2044 122.068 60.2044C123.186 60.2044 124.638 59.8343 125.057 58.1545L125.112 57.9553H125.95L125.866 58.2969C125.447 60.0336 124.107 61.0015 122.068 61.0015Z" fill="white"/>
<path d="M132.959 51.0101H132.679V52.4653H132.959V51.0101Z" fill="white"/>
<path d="M133.237 50.7242H132.398V52.7488H133.237V50.7242Z" fill="white"/>
<path d="M132.958 53.6862H132.679V60.4906H132.958V53.6862Z" fill="white"/>
<path d="M133.236 53.4001H132.398V60.7738H133.236V53.4001Z" fill="white"/>
<path d="M145.97 59.6649V55.252C145.97 54.0562 145.048 53.4869 142.954 53.4869C141.251 53.4869 140.106 53.9425 139.994 55.7645H140.245C140.357 54.3126 141.027 53.7431 142.926 53.7431C144.741 53.7431 145.691 54.1701 145.691 55.252V55.6221C145.691 56.4477 145.467 56.5902 144.071 56.647L141.865 56.7324C140.441 56.7895 139.687 57.5012 139.687 58.6399C139.687 60.0065 140.748 60.7183 142.34 60.7183C144.294 60.7183 145.244 59.9211 145.691 59.01H145.719V59.8073C145.719 60.2912 145.97 60.4905 146.417 60.4905C146.64 60.4905 146.892 60.462 147.031 60.4051V60.1489C146.836 60.2058 146.584 60.2343 146.417 60.2343C146.054 60.2343 145.97 60.0635 145.97 59.6649ZM145.719 57.7859C145.719 59.2379 144.657 60.462 142.368 60.462C140.999 60.462 139.966 59.8927 139.966 58.6684C139.966 57.7289 140.524 57.0457 141.921 57.0172L143.959 56.9318C144.937 56.9032 145.579 56.761 145.719 56.5048H145.747V57.7859H145.719Z" fill="white"/>
<path d="M142.338 61.0015C140.495 61.0015 139.406 60.119 139.406 58.6385C139.406 57.3003 140.3 56.5032 141.864 56.4463L144.07 56.3609C145.438 56.3039 145.438 56.1901 145.438 55.6207V55.2506C145.438 54.6526 145.131 54.0263 142.953 54.0263C141.026 54.0263 140.635 54.6243 140.551 55.763L140.523 56.0192H139.713L139.741 55.7061C139.853 53.4569 141.529 53.1438 142.981 53.1438C144.405 53.1438 146.276 53.3431 146.276 55.1936V59.6064C146.276 59.8343 146.304 59.8626 146.304 59.8912C146.304 59.8912 146.332 59.9197 146.443 59.9197C146.583 59.9197 146.806 59.8912 147.002 59.8343L147.365 59.7489V60.5745L147.197 60.6314C147.002 60.7168 146.695 60.7453 146.471 60.7453C145.857 60.7453 145.522 60.4321 145.494 59.8343C144.88 60.4891 143.93 61.0015 142.338 61.0015ZM145.438 56.9873C145.103 57.1012 144.628 57.1581 143.958 57.1866L141.919 57.272C140.775 57.3289 140.244 57.7559 140.244 58.6385C140.244 60.0051 141.724 60.1474 142.366 60.1474C144.265 60.1474 145.438 59.2363 145.438 57.7559V56.9873Z" fill="white"/>
<path d="M153.452 51.0101H153.201V60.518H153.452V51.0101Z" fill="white"/>
<path d="M153.729 50.7242H152.921V60.8014H153.729V50.7242Z" fill="white"/>
<path d="M83.845 31.1405C83.845 27.1839 82.3093 24.8214 79.1544 23.9105C82.7841 22.5157 84.4593 19.0999 84.4593 15.9688C84.4593 9.30807 81.388 6.23389 74.7988 6.23389H56.0922V40.9609H58.1304V25.163H72.8164C80.9133 25.163 81.8068 27.3547 81.8068 32.0229C81.8068 34.4425 81.9744 39.3668 82.6165 40.6478L82.7841 40.9609H84.9339L84.543 40.1354C84.0405 39.1392 83.845 33.7878 83.845 31.1405ZM58.1304 8.31181H74.6871C79.3219 8.31181 82.3932 9.62119 82.3932 15.9688C82.3932 19.2423 79.992 23.085 73.2631 23.085H58.1304V8.31181Z" fill="white"/>
<path d="M115.283 28.2371C115.283 35.9226 111.067 39.6799 102.412 39.6799C93.7566 39.6799 89.5407 35.9511 89.5407 28.2371V6.23389H87.5025V28.1233C87.5025 37.1466 92.5281 41.7295 102.412 41.7295C112.296 41.7295 117.321 37.1466 117.321 28.1233V6.23389H115.283V28.2371Z" fill="white"/>
<path d="M143.957 22.7434C146.777 21.4909 148.927 18.4169 148.927 15.1434C148.927 9.64966 145.326 6.23389 139.518 6.23389H121.063V40.9609H138.345C146.917 40.9609 149.988 35.9512 149.988 31.2545C149.96 26.8994 147.755 23.8536 143.957 22.7434ZM138.318 38.9115H123.101V23.939H138.318C144.683 23.939 147.894 26.4155 147.894 31.2828C147.922 34.9549 145.409 38.9115 138.318 38.9115ZM138.708 21.8611H123.101V8.31181H139.323C144.209 8.31181 146.889 10.7313 146.889 15.1434C146.917 18.4169 144.041 21.8611 138.708 21.8611Z" fill="white"/>
<path d="M166.601 6.23389H164.674L149.011 40.9609H151.44L156.382 29.8597H174.866L179.808 40.9609H182.236L166.601 6.23389ZM157.332 27.8102L165.653 9.13729L173.972 27.8102H157.332Z" fill="white"/>
<path d="M48.889 16.5106V0L40.7358 8.2553C43.5001 11.045 46.2364 13.8347 48.889 16.5106Z" fill="#DAA900"/>
<path d="M0.0279221 0C0 0 0 0.0284666 0.0279221 0L0 16.5391C2.68052 13.8347 5.41689 11.0735 8.18118 8.2553L0.0279221 0Z" fill="#B12028"/>
<path d="M32.5829 16.5095L46.3476 30.4573C47.2131 31.3113 48.0509 32.1937 48.8885 33.0191V16.5095L40.7357 8.25476L32.5829 16.5095Z" fill="#EE7623"/>
<path d="M8.18067 8.25623L0 16.5395V33.049C1.81482 31.2272 3.68548 29.3202 5.58406 27.3845L16.3333 16.511L8.18067 8.25623Z" fill="#FF671D"/>
<path d="M24.4597 8.2553C27.1402 5.52251 29.8767 2.76126 32.613 0H16.3344C19.0429 2.78971 21.7792 5.55097 24.4597 8.2553Z" fill="#FF671D"/>
<path d="M24.4581 24.7358L48.8884 49.4718V33.0192L46.3477 30.4573C41.992 26.0452 37.3852 21.377 32.583 16.5095L24.4581 24.7358Z" fill="#B12028"/>
<path d="M16.3118 0H0.0331116L8.18636 8.2553C10.8669 5.55097 13.5753 2.78971 16.3118 0Z" fill="#E1251B"/>
<path d="M5.58408 27.3843L0 33.0488V49.4729L24.4582 24.7085L16.3333 16.5107C12.6479 20.2395 9.0462 23.883 5.58408 27.3843Z" fill="#DAA900"/>
<path d="M32.6111 0C35.3475 2.78971 38.0559 5.52251 40.7364 8.2553L48.8897 0H32.6111Z" fill="#F2CD00"/>
<path d="M16.3076 0L8.18225 8.2553L16.3355 16.5106L20.3564 12.4399C21.7245 11.0735 23.0927 9.67862 24.4608 8.2553L16.3076 0Z" fill="#FE3B1F"/>
<path d="M24.4581 8.2553C26.0776 9.90635 27.697 11.529 29.2887 13.1515L32.5834 16.5106L40.7367 8.2553L32.6113 0L24.4581 8.2553Z" fill="#FF9015"/>
<path d="M29.2903 13.1516L24.4597 8.25537L20.3553 12.44C18.987 13.8063 17.6467 15.1727 16.3344 16.5106L24.4597 24.7375L32.5851 16.5106C31.4961 15.4004 30.4072 14.2903 29.2903 13.1516Z" fill="#E1251B"/>
</g>
</g>
<defs>
<clipPath id="clip0_2034_96">
<rect width="183" height="61" fill="white"/>
</clipPath>
</defs>
</svg>
