<svg width="23" height="22" viewBox="0 0 23 22" fill="none" xmlns="http://www.w3.org/2000/svg">
  <path
    d="M22.0625 11C22.0592 13.5815 21.112 16.0728 19.3994 18.0044C17.6868 19.9361 15.327 21.1748 12.7645 21.4873C12.7074 21.4938 12.6496 21.4881 12.5949 21.4706C12.5402 21.4531 12.4899 21.4242 12.4472 21.3858C12.4045 21.3474 12.3704 21.3004 12.3472 21.2479C12.324 21.1954 12.3122 21.1385 12.3125 21.0811V13.4375H14.75C14.8614 13.4378 14.9716 13.4151 15.0739 13.3709C15.1762 13.3268 15.2682 13.2621 15.3444 13.1808C15.4206 13.0996 15.4793 13.0035 15.5168 12.8987C15.5543 12.7938 15.5699 12.6823 15.5625 12.5712C15.5446 12.3622 15.4482 12.1679 15.2927 12.0271C15.1373 11.8864 14.9343 11.8097 14.7246 11.8125H12.3125V9.37501C12.3125 8.94403 12.4837 8.5307 12.7885 8.22596C13.0932 7.92121 13.5065 7.75001 13.9375 7.75001H15.5625C15.6739 7.75025 15.7841 7.72759 15.8864 7.68343C15.9887 7.63928 16.0807 7.57457 16.1569 7.49333C16.2331 7.41208 16.2918 7.31604 16.3293 7.21116C16.3668 7.10629 16.3824 6.99482 16.375 6.88368C16.357 6.67439 16.2604 6.47971 16.1045 6.33891C15.9486 6.1981 15.7451 6.12166 15.5351 6.12501H13.9375C13.0756 6.12501 12.2489 6.46741 11.6394 7.07691C11.0299 7.6864 10.6875 8.51305 10.6875 9.37501V11.8125H8.25001C8.13863 11.8123 8.02839 11.8349 7.92613 11.8791C7.82387 11.9232 7.73178 11.9879 7.65559 12.0692C7.57939 12.1504 7.52072 12.2465 7.4832 12.3513C7.44569 12.4562 7.43014 12.5677 7.43751 12.6788C7.45549 12.8881 7.55216 13.0828 7.70804 13.2236C7.86392 13.3644 8.06741 13.4408 8.27744 13.4375H10.6875V21.0831C10.6879 21.1405 10.6761 21.1972 10.6529 21.2497C10.6298 21.3021 10.5958 21.3491 10.5532 21.3874C10.5106 21.4258 10.4604 21.4547 10.4058 21.4723C10.3512 21.4899 10.2936 21.4957 10.2366 21.4894C7.60545 21.169 5.19051 19.8724 3.46975 17.8564C1.74898 15.8403 0.847819 13.2517 0.944624 10.6029C1.14775 5.11852 5.59009 0.659927 11.0785 0.446645C12.4995 0.391605 13.9169 0.623721 15.2461 1.12911C16.5753 1.6345 17.7889 2.40278 18.8143 3.38799C19.8397 4.37321 20.6559 5.55512 21.214 6.86303C21.7721 8.17095 22.0607 9.57799 22.0625 11Z"
    fill="white" />
</svg>
