<svg width="23" height="22" viewBox="0 0 23 22" fill="none" xmlns="http://www.w3.org/2000/svg">
  <path
    d="M16.375 0.4375H6.625C5.11708 0.439113 3.67138 1.03885 2.60511 2.10511C1.53885 3.17138 0.939113 4.61708 0.9375 6.125V15.875C0.939113 17.3829 1.53885 18.8286 2.60511 19.8949C3.67138 20.9612 5.11708 21.5609 6.625 21.5625H16.375C17.8829 21.5609 19.3286 20.9612 20.3949 19.8949C21.4612 18.8286 22.0609 17.3829 22.0625 15.875V6.125C22.0609 4.61708 21.4612 3.17138 20.3949 2.10511C19.3286 1.03885 17.8829 0.439113 16.375 0.4375ZM11.5 15.875C10.5358 15.875 9.59328 15.5891 8.79159 15.0534C7.98991 14.5177 7.36506 13.7564 6.99609 12.8656C6.62711 11.9748 6.53057 10.9946 6.71867 10.0489C6.90677 9.10328 7.37107 8.23464 8.05285 7.55285C8.73464 6.87107 9.60328 6.40677 10.5489 6.21867C11.4946 6.03057 12.4748 6.12711 13.3656 6.49609C14.2564 6.86506 15.0177 7.48991 15.5534 8.29159C16.0891 9.09328 16.375 10.0358 16.375 11C16.3737 12.2925 15.8596 13.5317 14.9457 14.4457C14.0317 15.3596 12.7925 15.8737 11.5 15.875ZM17.5938 6.125C17.3527 6.125 17.1171 6.05352 16.9166 5.9196C16.7162 5.78569 16.56 5.59534 16.4678 5.37265C16.3755 5.14995 16.3514 4.9049 16.3984 4.66848C16.4454 4.43207 16.5615 4.21491 16.732 4.04446C16.9024 3.87402 17.1196 3.75794 17.356 3.71092C17.5924 3.66389 17.8374 3.68803 18.0601 3.78027C18.2828 3.87252 18.4732 4.02873 18.6071 4.22915C18.741 4.42957 18.8125 4.6652 18.8125 4.90625C18.8125 5.22948 18.6841 5.53948 18.4555 5.76804C18.227 5.9966 17.917 6.125 17.5938 6.125ZM14.75 11C14.75 11.6428 14.5594 12.2711 14.2023 12.8056C13.8452 13.3401 13.3376 13.7566 12.7437 14.0026C12.1499 14.2486 11.4964 14.313 10.866 14.1876C10.2355 14.0622 9.65642 13.7526 9.2019 13.2981C8.74738 12.8436 8.43785 12.2645 8.31245 11.634C8.18705 11.0036 8.25141 10.3501 8.49739 9.75628C8.74338 9.16242 9.15994 8.65484 9.6944 8.29772C10.2289 7.94061 10.8572 7.75 11.5 7.75C12.362 7.75 13.1886 8.09241 13.7981 8.7019C14.4076 9.3114 14.75 10.138 14.75 11Z"
    fill="white" />
</svg>
