<svg width="23" height="22" viewBox="0 0 23 22" fill="none" xmlns="http://www.w3.org/2000/svg">
  <path
    d="M13.9964 12.7499L16.3323 13.9159C16.2216 14.4691 15.9224 14.9669 15.4856 15.3241C15.0489 15.6814 14.5017 15.8761 13.9375 15.875C11.9988 15.8728 10.1401 15.1017 8.76916 13.7308C7.39826 12.36 6.62715 10.5012 6.625 8.5625C6.62484 7.99895 6.81996 7.45276 7.17716 7.01686C7.53435 6.58097 8.03155 6.28232 8.58414 6.17172L9.75008 8.50766L8.75781 9.98438C8.68366 10.0956 8.6381 10.2234 8.62517 10.3565C8.61224 10.4895 8.63233 10.6237 8.68367 10.7471C9.265 12.1287 10.3641 13.2279 11.7458 13.8092C11.8696 13.8628 12.0048 13.8848 12.1392 13.8731C12.2736 13.8614 12.403 13.8164 12.5156 13.7422L13.9964 12.7499ZM22.0625 11C22.0629 12.8236 21.5912 14.6162 20.6932 16.2034C19.7952 17.7906 18.5017 19.1182 16.9384 20.0572C15.3751 20.9961 13.5953 21.5143 11.7723 21.5613C9.94935 21.6083 8.14525 21.1826 6.53562 20.3255L3.07742 21.4782C2.7911 21.5737 2.48385 21.5875 2.1901 21.5182C1.89635 21.4489 1.62771 21.2991 1.41429 21.0857C1.20087 20.8723 1.0511 20.6037 0.981779 20.3099C0.912455 20.0162 0.926312 19.7089 1.0218 19.4226L2.17453 15.9644C1.42109 14.5478 1.00026 12.9782 0.943997 11.3747C0.887732 9.77125 1.19751 8.17603 1.8498 6.71014C2.5021 5.24425 3.47978 3.94623 4.70863 2.9146C5.93748 1.88298 7.38521 1.14486 8.94191 0.75628C10.4986 0.3677 12.1234 0.33887 13.6929 0.671977C15.2624 1.00508 16.7354 1.69137 18.0001 2.67875C19.2648 3.66613 20.2879 4.92865 20.9918 6.37047C21.6957 7.8123 22.0618 9.39553 22.0625 11ZM18 13.4375C18.0001 13.2866 17.9582 13.1386 17.8789 13.0101C17.7996 12.8817 17.6861 12.7779 17.5511 12.7103L14.3011 11.0853C14.1732 11.0216 14.0307 10.9927 13.888 11.0016C13.7454 11.0105 13.6076 11.0569 13.4886 11.1361L11.9966 12.1314C11.3118 11.7549 10.7481 11.1913 10.3716 10.5064L11.367 9.01445C11.4461 8.89546 11.4925 8.75768 11.5014 8.61502C11.5104 8.47237 11.4815 8.32988 11.4177 8.20195L9.79273 4.95195C9.72538 4.81593 9.62127 4.7015 9.49221 4.62162C9.36314 4.54174 9.21428 4.49961 9.0625 4.5C7.98506 4.5 6.95175 4.92801 6.18988 5.68988C5.42801 6.45175 5 7.48506 5 8.5625C5.00269 10.932 5.94518 13.2038 7.6207 14.8793C9.29623 16.5548 11.568 17.4973 13.9375 17.5C14.471 17.5 14.9993 17.3949 15.4922 17.1908C15.985 16.9866 16.4329 16.6874 16.8101 16.3101C17.1874 15.9329 17.4866 15.485 17.6908 14.9922C17.8949 14.4993 18 13.971 18 13.4375Z"
    fill="white" />
</svg>
